<?xml version="1.0" encoding="utf-8"?>
<svg version="1.1" viewBox="0.0 0.0 959.0839895013123 501.06824146981626" fill="none" stroke="none" stroke-linecap="square" stroke-miterlimit="10" xmlns="http://www.w3.org/2000/svg">
  <clipPath id="p.0">
    <path d="m0 0l959.084 0l0 501.06824l-959.084 0l0 -501.06824z" clip-rule="nonzero"/>
  </clipPath>
  <g clip-path="url(#p.0)">
    <path fill="#000000" fill-opacity="0.0" d="m0 0l959.084 0l0 501.06824l-959.084 0z" fill-rule="evenodd"/>
    <path fill="#000000" fill-opacity="0.0" d="m33.868767 253.62204l0 0c0 -119.24132 201.60583 -215.9055 450.2992 -215.9055l0 0c248.69342 0 450.2992 96.664185 450.2992 215.9055l0 0c0 119.24133 -201.60577 215.90552 -450.2992 215.90552l0 0c-248.69337 0 -450.2992 -96.664185 -450.2992 -215.90552z" fill-rule="evenodd"/>
    <path stroke="#000000" stroke-width="1.0" stroke-linejoin="round" stroke-linecap="butt" d="m33.868767 253.62204l0 0c0 -119.24132 201.60583 -215.9055 450.2992 -215.9055l0 0c248.69342 0 450.2992 96.664185 450.2992 215.9055l0 0c0 119.24133 -201.60577 215.90552 -450.2992 215.90552l0 0c-248.69337 0 -450.2992 -96.664185 -450.2992 -215.90552z" fill-rule="evenodd"/>
    <path fill="#000000" fill-opacity="0.0" d="m88.82811 250.53412l0 0c0 -100.367966 176.9991 -181.73228 395.33856 -181.73228l0 0c218.33948 0 395.33856 81.36432 395.33856 181.73228l0 0c0 100.36798 -176.99908 181.7323 -395.33856 181.7323l0 0c-218.33948 0 -395.33856 -81.36432 -395.33856 -181.7323z" fill-rule="evenodd"/>
    <path stroke="#000000" stroke-width="1.0" stroke-linejoin="round" stroke-linecap="butt" d="m88.82811 250.53412l0 0c0 -100.367966 176.9991 -181.73228 395.33856 -181.73228l0 0c218.33948 0 395.33856 81.36432 395.33856 181.73228l0 0c0 100.36798 -176.99908 181.7323 -395.33856 181.7323l0 0c-218.33948 0 -395.33856 -81.36432 -395.33856 -181.7323z" fill-rule="evenodd"/>
    <path fill="#000000" fill-opacity="0.0" d="m141.479 253.62204l0 0c0 -76.94586 151.35596 -139.32283 338.063 -139.32283l0 0c186.70703 0 338.063 62.37697 338.063 139.32283l0 0c0 76.94589 -151.35596 139.32285 -338.063 139.32285l0 0c-186.70703 0 -338.063 -62.376953 -338.063 -139.32285z" fill-rule="evenodd"/>
    <path stroke="#000000" stroke-width="1.0" stroke-linejoin="round" stroke-linecap="butt" d="m141.479 253.62204l0 0c0 -76.94586 151.35596 -139.32283 338.063 -139.32283l0 0c186.70703 0 338.063 62.37697 338.063 139.32283l0 0c0 76.94589 -151.35596 139.32285 -338.063 139.32285l0 0c-186.70703 0 -338.063 -62.376953 -338.063 -139.32285z" fill-rule="evenodd"/>
    <path fill="#000000" fill-opacity="0.0" d="m205.24278 250.53412l0 0c0 -55.480698 122.80794 -100.456696 274.2992 -100.456696l0 0c151.49127 0 274.2992 44.975998 274.2992 100.456696l0 0c0 55.480713 -122.80792 100.456696 -274.2992 100.456696l0 0c-151.49127 0 -274.2992 -44.975983 -274.2992 -100.456696z" fill-rule="evenodd"/>
    <path stroke="#000000" stroke-width="1.0" stroke-linejoin="round" stroke-linecap="butt" d="m205.24278 250.53412l0 0c0 -55.480698 122.80794 -100.456696 274.2992 -100.456696l0 0c151.49127 0 274.2992 44.975998 274.2992 100.456696l0 0c0 55.480713 -122.80792 100.456696 -274.2992 100.456696l0 0c-151.49127 0 -274.2992 -44.975983 -274.2992 -100.456696z" fill-rule="evenodd"/>
    <path fill="#000000" fill-opacity="0.0" d="m274.95898 253.62166c0 -38.946945 91.59479 -70.519684 204.58267 -70.519684l0 0c112.987885 0 204.58267 31.572739 204.58267 70.519684l0 0c0 38.946945 -91.59479 70.51967 -204.58267 70.51967l0 0c-112.987885 0 -204.58267 -31.572723 -204.58267 -70.51967z" fill-rule="evenodd"/>
    <path stroke="#000000" stroke-width="1.0" stroke-linejoin="round" stroke-linecap="butt" d="m274.95898 253.62166c0 -38.946945 91.59479 -70.519684 204.58267 -70.519684l0 0c112.987885 0 204.58267 31.572739 204.58267 70.519684l0 0c0 38.946945 -91.59479 70.51967 -204.58267 70.51967l0 0c-112.987885 0 -204.58267 -31.572723 -204.58267 -70.51967z" fill-rule="evenodd"/>
    <path fill="#000000" fill-opacity="0.0" d="m333.30185 253.62224l0 0c0 -24.0309 67.545074 -43.51181 150.86612 -43.51181l0 0c83.321106 0 150.86615 19.480911 150.86615 43.51181l0 0c0 24.03093 -67.545044 43.511826 -150.86615 43.511826l0 0c-83.321045 0 -150.86612 -19.480896 -150.86612 -43.511826z" fill-rule="evenodd"/>
    <path stroke="#000000" stroke-width="1.0" stroke-linejoin="round" stroke-linecap="butt" d="m333.30185 253.62224l0 0c0 -24.0309 67.545074 -43.51181 150.86612 -43.51181l0 0c83.321106 0 150.86615 19.480911 150.86615 43.51181l0 0c0 24.03093 -67.545044 43.511826 -150.86615 43.511826l0 0c-83.321045 0 -150.86612 -19.480896 -150.86612 -43.511826z" fill-rule="evenodd"/>
    <path fill="#000000" fill-opacity="0.0" fill-rule="evenodd" d="m125.46719 265.55643l84.6693 -91.59842l62.349075 109.30185l47.72177 -55.419968l50.80316 27.711288"/>
    <path stroke="#ff0000" stroke-width="2.0" stroke-linejoin="round" stroke-linecap="butt" fill-rule="evenodd" d="m125.46719 265.55643l84.6693 -91.59842l62.349075 109.30185l47.72177 -55.419968l40.268463 21.964981"/>
    <path fill="#ff0000" stroke="#ff0000" stroke-width="2.0" stroke-linecap="butt" fill-rule="evenodd" d="m358.8939 252.70497l9.549835 1.4461212l-6.3860474 -7.246292z"/>
  </g>
</svg>