<?xml version="1.0" encoding="utf-8"?>
<svg version="1.1" viewBox="0.0 0.0 959.0839895013123 501.06824146981626" fill="none" stroke="none" stroke-linecap="square" stroke-miterlimit="10" xmlns="http://www.w3.org/2000/svg">
  <clipPath id="p.0">
    <path d="m0 0l959.084 0l0 501.06824l-959.084 0l0 -501.06824z" clip-rule="nonzero"/>
  </clipPath>
  <path fill="#000000" fill-opacity="0.0" d="M 0 0 L 959.084 0 L 959.084 501.068 L 0 501.068 L 0 0 Z" fill-rule="evenodd" clip-path="url(#p.0)"/>
  <path fill="#000000" fill-opacity="0.0" d="M 33.869 253.622 C 33.869 134.381 235.475 37.717 484.168 37.717 C 732.861 37.717 934.467 134.381 934.467 253.622 C 934.467 372.863 732.861 469.528 484.168 469.528 C 235.475 469.528 33.869 372.863 33.869 253.622 Z" fill-rule="evenodd" clip-path="url(#p.0)"/>
  <path stroke="#000000" stroke-width="1.0" stroke-linejoin="round" stroke-linecap="butt" d="M 33.869 253.622 C 33.869 134.381 235.475 37.717 484.168 37.717 C 732.861 37.717 934.467 134.381 934.467 253.622 C 934.467 372.863 732.861 469.528 484.168 469.528 C 235.475 469.528 33.869 372.863 33.869 253.622 Z" fill-rule="evenodd" clip-path="url(#p.0)"/>
  <path fill="#000000" fill-opacity="0.0" d="M 88.828 250.534 C 88.828 150.166 265.827 68.802 484.167 68.802 C 702.506 68.802 879.505 150.166 879.505 250.534 C 879.505 350.902 702.506 432.266 484.167 432.266 C 265.827 432.266 88.828 350.902 88.828 250.534 Z" fill-rule="evenodd" clip-path="url(#p.0)"/>
  <path stroke="#000000" stroke-width="1.0" stroke-linejoin="round" stroke-linecap="butt" d="M 88.828 250.534 C 88.828 150.166 265.827 68.802 484.167 68.802 C 702.506 68.802 879.505 150.166 879.505 250.534 C 879.505 350.902 702.506 432.266 484.167 432.266 C 265.827 432.266 88.828 350.902 88.828 250.534 Z" fill-rule="evenodd" clip-path="url(#p.0)"/>
  <path fill="#000000" fill-opacity="0.0" d="M 141.479 253.622 C 141.479 176.676 292.835 114.299 479.542 114.299 C 666.249 114.299 817.605 176.676 817.605 253.622 C 817.605 330.568 666.249 392.945 479.542 392.945 C 292.835 392.945 141.479 330.568 141.479 253.622 Z" fill-rule="evenodd" clip-path="url(#p.0)"/>
  <path stroke="#000000" stroke-width="1.0" stroke-linejoin="round" stroke-linecap="butt" d="M 141.479 253.622 C 141.479 176.676 292.835 114.299 479.542 114.299 C 666.249 114.299 817.605 176.676 817.605 253.622 C 817.605 330.568 666.249 392.945 479.542 392.945 C 292.835 392.945 141.479 330.568 141.479 253.622 Z" fill-rule="evenodd" clip-path="url(#p.0)"/>
  <path fill="#000000" fill-opacity="0.0" d="M 205.243 250.534 C 205.243 195.053 328.051 150.077 479.542 150.077 C 631.033 150.077 753.841 195.053 753.841 250.534 C 753.841 306.015 631.033 350.991 479.542 350.991 C 328.051 350.991 205.243 306.015 205.243 250.534 Z" fill-rule="evenodd" clip-path="url(#p.0)"/>
  <path stroke="#000000" stroke-width="1.0" stroke-linejoin="round" stroke-linecap="butt" d="M 205.243 250.534 C 205.243 195.053 328.051 150.077 479.542 150.077 C 631.033 150.077 753.841 195.053 753.841 250.534 C 753.841 306.015 631.033 350.991 479.542 350.991 C 328.051 350.991 205.243 306.015 205.243 250.534 Z" fill-rule="evenodd" clip-path="url(#p.0)"/>
  <path fill="#000000" fill-opacity="0.0" d="M 274.959 253.622 C 274.959 214.675 366.554 183.102 479.542 183.102 C 592.53 183.102 684.124 214.675 684.124 253.622 C 684.124 292.569 592.53 324.141 479.542 324.141 C 366.554 324.141 274.959 292.569 274.959 253.622 Z" fill-rule="evenodd" clip-path="url(#p.0)"/>
  <path stroke="#000000" stroke-width="1.0" stroke-linejoin="round" stroke-linecap="butt" d="M 274.959 253.622 C 274.959 214.675 366.554 183.102 479.542 183.102 C 592.53 183.102 684.124 214.675 684.124 253.622 C 684.124 292.569 592.53 324.141 479.542 324.141 C 366.554 324.141 274.959 292.569 274.959 253.622 Z" fill-rule="evenodd" clip-path="url(#p.0)"/>
  <path fill="#000000" fill-opacity="0.0" d="M 333.302 253.622 C 333.302 229.591 400.847 210.11 484.168 210.11 C 567.489 210.11 635.034 229.591 635.034 253.622 C 635.034 277.653 567.489 297.134 484.168 297.134 C 400.847 297.134 333.302 277.653 333.302 253.622 Z" fill-rule="evenodd" clip-path="url(#p.0)"/>
  <path stroke="#000000" stroke-width="1.0" stroke-linejoin="round" stroke-linecap="butt" d="M 333.302 253.622 C 333.302 229.591 400.847 210.11 484.168 210.11 C 567.489 210.11 635.034 229.591 635.034 253.622 C 635.034 277.653 567.489 297.134 484.168 297.134 C 400.847 297.134 333.302 277.653 333.302 253.622 Z" fill-rule="evenodd" clip-path="url(#p.0)"/>
  <path fill="#000000" fill-opacity="0.0" d="M 124.696 265.556 L 164.722 151.638 L 180.118 300.963 L 223.992 173.958 L 240.927 294.037 L 271.714 189.354 L 292.499 280.953 L 313.281 214.756 L 324.827 277.102 L 344.84 238.617 L 349.457 262.478" fill-rule="evenodd" clip-path="url(#p.0)"/>
  <path stroke="#0000ff" stroke-width="1.0" stroke-linejoin="round" stroke-linecap="butt" d="M 124.696 265.556 L 164.722 151.638 L 180.118 300.963 L 223.992 173.958 L 240.927 294.037 L 271.714 189.354 L 292.499 280.953 L 313.281 214.756 L 324.827 277.102 L 344.84 238.617 L 348.317 256.587" fill-rule="evenodd" clip-path="url(#p.0)"/>
  <path fill="#0000ff" stroke="#0000ff" stroke-width="1.0" stroke-linecap="butt" d="M 346.695 256.901 L 349.179 261.042 L 349.939 256.273 L 346.695 256.901 Z" fill-rule="evenodd" clip-path="url(#p.0)"/>
</svg>